ISO-10303-21;
HEADER;
FILE_DESCRIPTION (( 'STEP AP203' ),
    '1' );
FILE_NAME ('5mmµæÖù.STEP',
    '2025-07-09T08:10:48',
    ( '' ),
    ( '' ),
    'SwSTEP 2.0',
    'SolidWorks 2023',
    '' );
FILE_SCHEMA (( 'CONFIG_CONTROL_DESIGN' ));
ENDSEC;

DATA;
#1 = CARTESIAN_POINT ( 'NONE',  ( 0.000000000000000000, 0.000000000000000000, 5.000000000000000000 ) ) ;
#2 = CYLINDRICAL_SURFACE ( 'NONE', #56, 1.350000000000000089 ) ;
#3 = LINE ( 'NONE', #77, #144 ) ;
#4 = CARTESIAN_POINT ( 'NONE',  ( -2.000000000000000000, 0.000000000000000000, 5.000000000000000000 ) ) ;
#5 = EDGE_CURVE ( 'NONE', #230, #209, #30, .T. ) ;
#6 = DIRECTION ( 'NONE',  ( 1.000000000000000000, 0.000000000000000000, 0.000000000000000000 ) ) ;
#7 = CIRCLE ( 'NONE', #45, 2.000000000000000000 ) ;
#8 = PERSON_AND_ORGANIZATION_ROLE ( 'design_owner' ) ;
#9 = APPLICATION_PROTOCOL_DEFINITION ( 'international standard', 'config_control_design', 1994, #147 ) ;
#10 = EDGE_LOOP ( 'NONE', ( #128, #186, #229, #225 ) ) ;
#11 = APPROVAL_ROLE ( '' ) ;
#12 = ORIENTED_EDGE ( 'NONE', *, *, #17, .T. ) ;
#13 = ORIENTED_EDGE ( 'NONE', *, *, #5, .T. ) ;
#14 = APPROVAL ( #127, 'æœª' ) ;
#15 = ORIENTED_EDGE ( 'NONE', *, *, #71, .T. ) ;
#16 = PERSON_AND_ORGANIZATION_ROLE ( 'classification_officer' ) ;
#17 = EDGE_CURVE ( 'NONE', #72, #207, #158, .T. ) ;
#18 = DIRECTION ( 'NONE',  ( 0.000000000000000000, 0.000000000000000000, 1.000000000000000000 ) ) ;
#19 = CARTESIAN_POINT ( 'NONE',  ( -2.000000000000000000, 0.000000000000000000, 0.000000000000000000 ) ) ;
#20 = CIRCLE ( 'NONE', #217, 2.000000000000000000 ) ;
#21 = DIRECTION ( 'NONE',  ( 1.000000000000000000, 0.000000000000000000, 0.000000000000000000 ) ) ;
#22 = DIRECTION ( 'NONE',  ( -0.000000000000000000, -0.000000000000000000, -1.000000000000000000 ) ) ;
#23 = CC_DESIGN_PERSON_AND_ORGANIZATION_ASSIGNMENT ( #240, #125, ( #170 ) ) ;
#24 = CARTESIAN_POINT ( 'NONE',  ( 2.000000000000000000, 2.449293598294706414E-16, 0.000000000000000000 ) ) ;
#25 = AXIS2_PLACEMENT_3D ( 'NONE', #98, #60, #95 ) ;
#26 = LOCAL_TIME ( 16, 10, 48.00000000000000000, #27 ) ;
#27 = COORDINATED_UNIVERSAL_TIME_OFFSET ( 8, 0, .AHEAD. ) ;
#28 = DATE_AND_TIME ( #83, #183 ) ;
#29 = APPROVAL ( #140, 'æœª' ) ;
#30 = CIRCLE ( 'NONE', #182, 1.350000000000000089 ) ;
#31 = DATE_AND_TIME ( #241, #36 ) ;
#32 = MECHANICAL_CONTEXT ( 'NONE', #147, 'mechanical' ) ;
#33 = EDGE_CURVE ( 'NONE', #93, #129, #20, .T. ) ;
#34 = CALENDAR_DATE ( 2025, 9, 7 ) ;
#35 = AXIS2_PLACEMENT_3D ( 'NONE', #115, #213, #79 ) ;
#36 = LOCAL_TIME ( 16, 10, 48.00000000000000000, #160 ) ;
#37 = PERSON ( 'æœª', 'æœª', 'æœª', ('æœª'), ('æœª'), ('æœª') ) ;
#38 = ORIENTED_EDGE ( 'NONE', *, *, #86, .F. ) ;
#39 = CALENDAR_DATE ( 2025, 9, 7 ) ;
#40 = EDGE_LOOP ( 'NONE', ( #163, #15, #168, #167 ) ) ;
#41 = ADVANCED_FACE ( 'NONE', ( #190 ), #171, .F. ) ;
#42 = CARTESIAN_POINT ( 'NONE',  ( 0.000000000000000000, 0.000000000000000000, 5.000000000000000000 ) ) ;
#43 = CARTESIAN_POINT ( 'NONE',  ( 0.000000000000000000, 0.000000000000000000, 5.000000000000000000 ) ) ;
#44 = DIRECTION ( 'NONE',  ( 1.000000000000000000, 0.000000000000000000, 0.000000000000000000 ) ) ;
#45 = AXIS2_PLACEMENT_3D ( 'NONE', #150, #214, #120 ) ;
#46 = CARTESIAN_POINT ( 'NONE',  ( 0.000000000000000000, 0.000000000000000000, 0.000000000000000000 ) ) ;
#47 = PLANE ( 'NONE',  #117 ) ;
#48 = PERSON_AND_ORGANIZATION_ROLE ( 'creator' ) ;
#49 = CYLINDRICAL_SURFACE ( 'NONE', #122, 2.000000000000000000 ) ;
#50 = FACE_OUTER_BOUND ( 'NONE', #40, .T. ) ;
#51 =( LENGTH_UNIT ( ) NAMED_UNIT ( * ) SI_UNIT ( .MILLI., .METRE. ) );
#52 = EDGE_CURVE ( 'NONE', #209, #230, #107, .T. ) ;
#53 = PERSON_AND_ORGANIZATION ( #37, #65 ) ;
#54 = DATE_AND_TIME ( #34, #108 ) ;
#55 = VERTEX_POINT ( 'NONE', #24 ) ;
#56 = AXIS2_PLACEMENT_3D ( 'NONE', #43, #97, #135 ) ;
#57 = FACE_OUTER_BOUND ( 'NONE', #10, .T. ) ;
#58 = DIRECTION ( 'NONE',  ( -1.000000000000000000, 0.000000000000000000, 0.000000000000000000 ) ) ;
#59 = ADVANCED_FACE ( 'NONE', ( #57 ), #2, .F. ) ;
#60 = DIRECTION ( 'NONE',  ( 0.000000000000000000, 0.000000000000000000, 1.000000000000000000 ) ) ;
#61 = AXIS2_PLACEMENT_3D ( 'NONE', #235, #114, #216 ) ;
#62 = DIRECTION ( 'NONE',  ( -1.000000000000000000, 0.000000000000000000, 0.000000000000000000 ) ) ;
#63 = LINE ( 'NONE', #196, #178 ) ;
#64 = PERSON_AND_ORGANIZATION ( #37, #65 ) ;
#65 = ORGANIZATION ( 'æœª', 'æœª', '' ) ;
#66 = DIRECTION ( 'NONE',  ( 1.000000000000000000, 0.000000000000000000, 0.000000000000000000 ) ) ;
#67 =( NAMED_UNIT ( * ) PLANE_ANGLE_UNIT ( ) SI_UNIT ( $, .RADIAN. ) );
#68 = LOCAL_TIME ( 16, 10, 48.00000000000000000, #247 ) ;
#69 = APPROVAL_DATE_TIME ( #31, #29 ) ;
#70 = ORIENTED_EDGE ( 'NONE', *, *, #71, .F. ) ;
#71 = EDGE_CURVE ( 'NONE', #93, #55, #172, .T. ) ;
#72 = VERTEX_POINT ( 'NONE', #136 ) ;
#73 = ADVANCED_BREP_SHAPE_REPRESENTATION ( '5mm\X2\57ab67f1\X0\', ( #139, #118 ), #206 ) ;
#74 = PRODUCT ( '5mm\X2\57ab67f1\X0\', '5mm\X2\57ab67f1\X0\', '', ( #32 ) ) ;
#75 = EDGE_LOOP ( 'NONE', ( #38, #143 ) ) ;
#76 = CC_DESIGN_DATE_AND_TIME_ASSIGNMENT ( #121, #141, ( #194 ) ) ;
#77 = CARTESIAN_POINT ( 'NONE',  ( -2.000000000000000000, 0.000000000000000000, 5.000000000000000000 ) ) ;
#78 = CYLINDRICAL_SURFACE ( 'NONE', #212, 2.000000000000000000 ) ;
#79 = DIRECTION ( 'NONE',  ( 1.000000000000000000, 0.000000000000000000, 0.000000000000000000 ) ) ;
#80 = CARTESIAN_POINT ( 'NONE',  ( 2.000000000000000000, 2.449293598294706414E-16, 5.000000000000000000 ) ) ;
#81 = VECTOR ( 'NONE', #189, 1000.000000000000000 ) ;
#82 = CARTESIAN_POINT ( 'NONE',  ( 2.000000000000000000, 2.449293598294706414E-16, 5.000000000000000000 ) ) ;
#83 = CALENDAR_DATE ( 2025, 9, 7 ) ;
#84 = APPROVAL_PERSON_ORGANIZATION ( #197, #103, #105 ) ;
#85 = CARTESIAN_POINT ( 'NONE',  ( 1.350000000000000089, 1.653273178848926867E-16, 5.000000000000000000 ) ) ;
#86 = EDGE_CURVE ( 'NONE', #89, #55, #138, .T. ) ;
#87 = APPROVAL_DATE_TIME ( #28, #103 ) ;
#88 = APPLICATION_PROTOCOL_DEFINITION ( 'international standard', 'config_control_design', 1994, #201 ) ;
#89 = VERTEX_POINT ( 'NONE', #19 ) ;
#90 = CC_DESIGN_DATE_AND_TIME_ASSIGNMENT ( #166, #187, ( #219 ) ) ;
#91 = ORIENTED_EDGE ( 'NONE', *, *, #179, .T. ) ;
#92 = EDGE_CURVE ( 'NONE', #129, #89, #3, .T. ) ;
#93 = VERTEX_POINT ( 'NONE', #82 ) ;
#94 = PRODUCT_DEFINITION_SHAPE ( 'NONE', 'NONE',  #194 ) ;
#95 = DIRECTION ( 'NONE',  ( 1.000000000000000000, 0.000000000000000000, 0.000000000000000000 ) ) ;
#96 = CARTESIAN_POINT ( 'NONE',  ( 0.000000000000000000, 0.000000000000000000, 5.000000000000000000 ) ) ;
#97 = DIRECTION ( 'NONE',  ( -0.000000000000000000, -0.000000000000000000, -1.000000000000000000 ) ) ;
#98 = CARTESIAN_POINT ( 'NONE',  ( 0.000000000000000000, 0.000000000000000000, 0.000000000000000000 ) ) ;
#99 = DIRECTION ( 'NONE',  ( -0.000000000000000000, -0.000000000000000000, -1.000000000000000000 ) ) ;
#100 = AXIS2_PLACEMENT_3D ( 'NONE', #42, #22, #58 ) ;
#101 = CARTESIAN_POINT ( 'NONE',  ( 1.350000000000000089, 1.653273178848926867E-16, 5.000000000000000000 ) ) ;
#102 =( NAMED_UNIT ( * ) SI_UNIT ( $, .STERADIAN. ) SOLID_ANGLE_UNIT ( ) );
#103 = APPROVAL ( #200, 'æœª' ) ;
#104 = CIRCLE ( 'NONE', #246, 1.350000000000000089 ) ;
#105 = APPROVAL_ROLE ( '' ) ;
#106 = ORIENTED_EDGE ( 'NONE', *, *, #17, .F. ) ;
#107 = CIRCLE ( 'NONE', #25, 1.350000000000000089 ) ;
#108 = LOCAL_TIME ( 16, 10, 48.00000000000000000, #224 ) ;
#109 = EDGE_LOOP ( 'NONE', ( #70, #226, #249, #248 ) ) ;
#110 = EDGE_LOOP ( 'NONE', ( #106, #164 ) ) ;
#111 = ORIENTED_EDGE ( 'NONE', *, *, #33, .T. ) ;
#112 = SHAPE_DEFINITION_REPRESENTATION ( #94, #73 ) ;
#113 = ORIENTED_EDGE ( 'NONE', *, *, #52, .F. ) ;
#114 = DIRECTION ( 'NONE',  ( 0.000000000000000000, 0.000000000000000000, 1.000000000000000000 ) ) ;
#115 = CARTESIAN_POINT ( 'NONE',  ( 0.000000000000000000, 0.000000000000000000, 0.000000000000000000 ) ) ;
#116 = CARTESIAN_POINT ( 'NONE',  ( 0.000000000000000000, 0.000000000000000000, 0.000000000000000000 ) ) ;
#117 = AXIS2_PLACEMENT_3D ( 'NONE', #116, #193, #134 ) ;
#118 = AXIS2_PLACEMENT_3D ( 'NONE', #237, #157, #66 ) ;
#119 = DIRECTION ( 'NONE',  ( 0.000000000000000000, 0.000000000000000000, 1.000000000000000000 ) ) ;
#120 = DIRECTION ( 'NONE',  ( 1.000000000000000000, 0.000000000000000000, 0.000000000000000000 ) ) ;
#121 = DATE_AND_TIME ( #124, #26 ) ;
#122 = AXIS2_PLACEMENT_3D ( 'NONE', #176, #177, #155 ) ;
#123 = CARTESIAN_POINT ( 'NONE',  ( -1.350000000000000089, 0.000000000000000000, 0.000000000000000000 ) ) ;
#124 = CALENDAR_DATE ( 2025, 9, 7 ) ;
#125 = PERSON_AND_ORGANIZATION_ROLE ( 'design_supplier' ) ;
#126 = ADVANCED_FACE ( 'NONE', ( #133, #152 ), #173, .T. ) ;
#127 = APPROVAL_STATUS ( 'not_yet_approved' ) ;
#128 = ORIENTED_EDGE ( 'NONE', *, *, #215, .F. ) ;
#129 = VERTEX_POINT ( 'NONE', #4 ) ;
#130 = AXIS2_PLACEMENT_3D ( 'NONE', #151, #231, #44 ) ;
#131 = CC_DESIGN_APPROVAL ( #14, ( #219 ) ) ;
#132 = DIRECTION ( 'NONE',  ( -0.000000000000000000, -0.000000000000000000, -1.000000000000000000 ) ) ;
#133 = FACE_OUTER_BOUND ( 'NONE', #181, .T. ) ;
#134 = DIRECTION ( 'NONE',  ( 1.000000000000000000, 0.000000000000000000, -0.000000000000000000 ) ) ;
#135 = DIRECTION ( 'NONE',  ( -1.000000000000000000, 0.000000000000000000, 0.000000000000000000 ) ) ;
#136 = CARTESIAN_POINT ( 'NONE',  ( -1.350000000000000089, 0.000000000000000000, 5.000000000000000000 ) ) ;
#137 = SECURITY_CLASSIFICATION_LEVEL ( 'unclassified' ) ;
#138 = CIRCLE ( 'NONE', #35, 2.000000000000000000 ) ;
#139 = MANIFOLD_SOLID_BREP ( 'Í¹Ì¨-À­Éì1', #174 ) ;
#140 = APPROVAL_STATUS ( 'not_yet_approved' ) ;
#141 = DATE_TIME_ROLE ( 'creation_date' ) ;
#142 = ORIENTED_EDGE ( 'NONE', *, *, #215, .T. ) ;
#143 = ORIENTED_EDGE ( 'NONE', *, *, #205, .F. ) ;
#144 = VECTOR ( 'NONE', #132, 1000.000000000000000 ) ;
#145 = ADVANCED_FACE ( 'NONE', ( #153 ), #78, .T. ) ;
#146 = CC_DESIGN_APPROVAL ( #29, ( #194 ) ) ;
#147 = APPLICATION_CONTEXT ( 'configuration controlled 3d designs of mechanical parts and assemblies' ) ;
#148 = ORIENTED_EDGE ( 'NONE', *, *, #188, .F. ) ;
#149 = UNCERTAINTY_MEASURE_WITH_UNIT (LENGTH_MEASURE( 1.000000000000000082E-05 ), #51, 'distance_accuracy_value', 'NONE');
#150 = CARTESIAN_POINT ( 'NONE',  ( 0.000000000000000000, 0.000000000000000000, 5.000000000000000000 ) ) ;
#151 = CARTESIAN_POINT ( 'NONE',  ( 0.000000000000000000, 0.000000000000000000, 5.000000000000000000 ) ) ;
#152 = FACE_BOUND ( 'NONE', #110, .T. ) ;
#153 = FACE_OUTER_BOUND ( 'NONE', #109, .T. ) ;
#154 = DIRECTION ( 'NONE',  ( 0.000000000000000000, 0.000000000000000000, 1.000000000000000000 ) ) ;
#155 = DIRECTION ( 'NONE',  ( -1.000000000000000000, 0.000000000000000000, 0.000000000000000000 ) ) ;
#156 = CC_DESIGN_PERSON_AND_ORGANIZATION_ASSIGNMENT ( #64, #159, ( #170 ) ) ;
#157 = DIRECTION ( 'NONE',  ( 0.000000000000000000, 0.000000000000000000, 1.000000000000000000 ) ) ;
#158 = CIRCLE ( 'NONE', #130, 1.350000000000000089 ) ;
#159 = PERSON_AND_ORGANIZATION_ROLE ( 'creator' ) ;
#160 = COORDINATED_UNIVERSAL_TIME_OFFSET ( 8, 0, .AHEAD. ) ;
#161 = ADVANCED_FACE ( 'NONE', ( #211, #233 ), #47, .F. ) ;
#162 = CC_DESIGN_SECURITY_CLASSIFICATION ( #219, ( #170 ) ) ;
#163 = ORIENTED_EDGE ( 'NONE', *, *, #33, .F. ) ;
#164 = ORIENTED_EDGE ( 'NONE', *, *, #203, .F. ) ;
#165 = CIRCLE ( 'NONE', #61, 2.000000000000000000 ) ;
#166 = DATE_AND_TIME ( #39, #68 ) ;
#167 = ORIENTED_EDGE ( 'NONE', *, *, #92, .F. ) ;
#168 = ORIENTED_EDGE ( 'NONE', *, *, #205, .T. ) ;
#169 = DIRECTION ( 'NONE',  ( 1.000000000000000000, 0.000000000000000000, -0.000000000000000000 ) ) ;
#170 = PRODUCT_DEFINITION_FORMATION_WITH_SPECIFIED_SOURCE ( 'ä»', '', #74, .NOT_KNOWN. ) ;
#171 = CYLINDRICAL_SURFACE ( 'NONE', #100, 1.350000000000000089 ) ;
#172 = LINE ( 'NONE', #80, #81 ) ;
#173 = PLANE ( 'NONE',  #191 ) ;
#174 = CLOSED_SHELL ( 'NONE', ( #41, #236, #126, #161, #145, #59 ) ) ;
#175 = CARTESIAN_POINT ( 'NONE',  ( 0.000000000000000000, 0.000000000000000000, 5.000000000000000000 ) ) ;
#176 = CARTESIAN_POINT ( 'NONE',  ( 0.000000000000000000, 0.000000000000000000, 5.000000000000000000 ) ) ;
#177 = DIRECTION ( 'NONE',  ( -0.000000000000000000, -0.000000000000000000, -1.000000000000000000 ) ) ;
#178 = VECTOR ( 'NONE', #99, 1000.000000000000000 ) ;
#179 = EDGE_CURVE ( 'NONE', #129, #93, #7, .T. ) ;
#180 = PERSON_AND_ORGANIZATION ( #37, #65 ) ;
#181 = EDGE_LOOP ( 'NONE', ( #91, #111 ) ) ;
#182 = AXIS2_PLACEMENT_3D ( 'NONE', #46, #119, #21 ) ;
#183 = LOCAL_TIME ( 16, 10, 48.00000000000000000, #198 ) ;
#184 = APPROVAL_DATE_TIME ( #54, #14 ) ;
#185 = EDGE_LOOP ( 'NONE', ( #245, #13 ) ) ;
#186 = ORIENTED_EDGE ( 'NONE', *, *, #203, .T. ) ;
#187 = DATE_TIME_ROLE ( 'classification_date' ) ;
#188 = EDGE_CURVE ( 'NONE', #72, #209, #63, .T. ) ;
#189 = DIRECTION ( 'NONE',  ( -0.000000000000000000, -0.000000000000000000, -1.000000000000000000 ) ) ;
#190 = FACE_OUTER_BOUND ( 'NONE', #244, .T. ) ;
#191 = AXIS2_PLACEMENT_3D ( 'NONE', #96, #154, #169 ) ;
#192 = APPROVAL_PERSON_ORGANIZATION ( #239, #29, #221 ) ;
#193 = DIRECTION ( 'NONE',  ( 0.000000000000000000, 0.000000000000000000, 1.000000000000000000 ) ) ;
#194 = PRODUCT_DEFINITION ( 'æœ', '', #170, #228 ) ;
#195 = DIRECTION ( 'NONE',  ( 0.000000000000000000, 0.000000000000000000, 1.000000000000000000 ) ) ;
#196 = CARTESIAN_POINT ( 'NONE',  ( -1.350000000000000089, 0.000000000000000000, 5.000000000000000000 ) ) ;
#197 = PERSON_AND_ORGANIZATION ( #37, #65 ) ;
#198 = COORDINATED_UNIVERSAL_TIME_OFFSET ( 8, 0, .AHEAD. ) ;
#199 = DIRECTION ( 'NONE',  ( -0.000000000000000000, -0.000000000000000000, -1.000000000000000000 ) ) ;
#200 = APPROVAL_STATUS ( 'not_yet_approved' ) ;
#201 = APPLICATION_CONTEXT ( 'configuration controlled 3d designs of mechanical parts and assemblies' ) ;
#202 = VECTOR ( 'NONE', #199, 1000.000000000000000 ) ;
#203 = EDGE_CURVE ( 'NONE', #207, #72, #104, .T. ) ;
#204 = CARTESIAN_POINT ( 'NONE',  ( 1.350000000000000089, 1.653273178848926867E-16, 0.000000000000000000 ) ) ;
#205 = EDGE_CURVE ( 'NONE', #55, #89, #165, .T. ) ;
#206 =( GEOMETRIC_REPRESENTATION_CONTEXT ( 3 ) GLOBAL_UNCERTAINTY_ASSIGNED_CONTEXT ( ( #149 ) ) GLOBAL_UNIT_ASSIGNED_CONTEXT ( ( #51, #67, #102 ) ) REPRESENTATION_CONTEXT ( 'NONE', 'WORKASPACE' ) );
#207 = VERTEX_POINT ( 'NONE', #101 ) ;
#208 = CC_DESIGN_PERSON_AND_ORGANIZATION_ASSIGNMENT ( #220, #48, ( #194 ) ) ;
#209 = VERTEX_POINT ( 'NONE', #123 ) ;
#210 = DIRECTION ( 'NONE',  ( 1.000000000000000000, 0.000000000000000000, 0.000000000000000000 ) ) ;
#211 = FACE_OUTER_BOUND ( 'NONE', #75, .T. ) ;
#212 = AXIS2_PLACEMENT_3D ( 'NONE', #232, #234, #62 ) ;
#213 = DIRECTION ( 'NONE',  ( 0.000000000000000000, 0.000000000000000000, 1.000000000000000000 ) ) ;
#214 = DIRECTION ( 'NONE',  ( 0.000000000000000000, 0.000000000000000000, 1.000000000000000000 ) ) ;
#215 = EDGE_CURVE ( 'NONE', #207, #230, #223, .T. ) ;
#216 = DIRECTION ( 'NONE',  ( 1.000000000000000000, 0.000000000000000000, 0.000000000000000000 ) ) ;
#217 = AXIS2_PLACEMENT_3D ( 'NONE', #1, #195, #210 ) ;
#218 = PERSON_AND_ORGANIZATION ( #37, #65 ) ;
#219 = SECURITY_CLASSIFICATION ( '', '', #137 ) ;
#220 = PERSON_AND_ORGANIZATION ( #37, #65 ) ;
#221 = APPROVAL_ROLE ( '' ) ;
#222 = CC_DESIGN_PERSON_AND_ORGANIZATION_ASSIGNMENT ( #180, #8, ( #74 ) ) ;
#223 = LINE ( 'NONE', #85, #202 ) ;
#224 = COORDINATED_UNIVERSAL_TIME_OFFSET ( 8, 0, .AHEAD. ) ;
#225 = ORIENTED_EDGE ( 'NONE', *, *, #5, .F. ) ;
#226 = ORIENTED_EDGE ( 'NONE', *, *, #179, .F. ) ;
#227 = APPROVAL_PERSON_ORGANIZATION ( #53, #14, #11 ) ;
#228 = DESIGN_CONTEXT ( 'detailed design', #201, 'design' ) ;
#229 = ORIENTED_EDGE ( 'NONE', *, *, #188, .T. ) ;
#230 = VERTEX_POINT ( 'NONE', #204 ) ;
#231 = DIRECTION ( 'NONE',  ( 0.000000000000000000, 0.000000000000000000, 1.000000000000000000 ) ) ;
#232 = CARTESIAN_POINT ( 'NONE',  ( 0.000000000000000000, 0.000000000000000000, 5.000000000000000000 ) ) ;
#233 = FACE_BOUND ( 'NONE', #185, .T. ) ;
#234 = DIRECTION ( 'NONE',  ( -0.000000000000000000, -0.000000000000000000, -1.000000000000000000 ) ) ;
#235 = CARTESIAN_POINT ( 'NONE',  ( 0.000000000000000000, 0.000000000000000000, 0.000000000000000000 ) ) ;
#236 = ADVANCED_FACE ( 'NONE', ( #50 ), #49, .T. ) ;
#237 = CARTESIAN_POINT ( 'NONE',  ( 0.000000000000000000, 0.000000000000000000, 0.000000000000000000 ) ) ;
#238 = PRODUCT_RELATED_PRODUCT_CATEGORY ( 'detail', '', ( #74 ) ) ;
#239 = PERSON_AND_ORGANIZATION ( #37, #65 ) ;
#240 = PERSON_AND_ORGANIZATION ( #37, #65 ) ;
#241 = CALENDAR_DATE ( 2025, 9, 7 ) ;
#242 = CC_DESIGN_PERSON_AND_ORGANIZATION_ASSIGNMENT ( #218, #16, ( #219 ) ) ;
#243 = CC_DESIGN_APPROVAL ( #103, ( #170 ) ) ;
#244 = EDGE_LOOP ( 'NONE', ( #12, #142, #113, #148 ) ) ;
#245 = ORIENTED_EDGE ( 'NONE', *, *, #52, .T. ) ;
#246 = AXIS2_PLACEMENT_3D ( 'NONE', #175, #18, #6 ) ;
#247 = COORDINATED_UNIVERSAL_TIME_OFFSET ( 8, 0, .AHEAD. ) ;
#248 = ORIENTED_EDGE ( 'NONE', *, *, #86, .T. ) ;
#249 = ORIENTED_EDGE ( 'NONE', *, *, #92, .T. ) ;
ENDSEC;
END-ISO-10303-21;
